<?xml version="1.0" encoding="UTF-8" standalone="no"?>
<svg
   xmlns:dc="http://purl.org/dc/elements/1.1/"
   xmlns:cc="http://creativecommons.org/ns#"
   xmlns:rdf="http://www.w3.org/1999/02/22-rdf-syntax-ns#"
   xmlns:svg="http://www.w3.org/2000/svg"
   xmlns="http://www.w3.org/2000/svg"
   width="277.25684mm"
   height="255.08771mm"
   viewBox="0 0 982.40611 903.85408"
   id="svg2"
   version="1.1">
  <defs
     id="defs4" />
  <metadata
     id="metadata7">
    <rdf:RDF>
      <cc:Work
         rdf:about="">
        <dc:format>image/svg+xml</dc:format>
        <dc:type
           rdf:resource="http://purl.org/dc/dcmitype/StillImage" />
        <dc:title></dc:title>
      </cc:Work>
    </rdf:RDF>
  </metadata>
  <g
     transform="translate(7.0092927e-7,-148.5081)"
     id="layer1"
     style="display:inline" />
  <g
     transform="translate(7.0092927e-7,-148.5081)"
     id="layer2">
    <g
       transform="translate(146.2355,98.032657)"
       id="g4144">
      <path
         style="display:inline;fill:none;fill-opacity:1;stroke:#9d9d9d;stroke-width:3.63114381;stroke-linecap:butt;stroke-linejoin:round;stroke-miterlimit:4;stroke-dasharray:none;stroke-dashoffset:1;stroke-opacity:1"
         d="m 343.9375,52.291016 c -93.36223,7.85714 -163.6112,68.704774 -209.0957,215.568364 -32.183,103.91476 54.84993,226.1512 67.90039,243.66601 a 165.22221,165.22221 0 0 0 -1.13672,1.85547 C 178.82798,510.74174 30.929105,497.04477 -42.621094,576.49414 -147.06644,689.31667 -164.63641,780.57677 -124.75977,865.35938 -71.274176,942.28486 16.544745,972.6992 166.47461,938.6582 269.16446,915.34284 330.80926,786.79689 342.50781,760.35742 a 165.22221,165.22221 0 0 0 2.45899,0.12305 165.22221,165.22221 0 0 0 2.46484,-0.0879 c 11.71522,26.47274 73.35684,154.97418 176.02734,178.28515 149.92986,34.0411 237.75073,3.62863 291.23633,-73.29687 39.87663,-84.7826 22.30473,-176.04466 -82.14062,-288.86719 -52.368,-56.56823 -142.77784,-65.87633 -198.7461,-65.59179 -21.93228,0.11149 -38.5637,1.69525 -45.55664,2.48632 a 165.22221,165.22221 0 0 0 -1.98047,-3.45312 C 502.44014,487.9172 584.42758,369.2341 553.03125,267.85938 507.54675,120.99579 437.29974,60.148156 343.9375,52.291016 Z"
         id="path4234" />
      <circle
         style="display:inline;fill:none;fill-opacity:1;stroke:#9d9d9d;stroke-width:0.01266924;stroke-linecap:butt;stroke-linejoin:round;stroke-miterlimit:4;stroke-dasharray:none;stroke-dashoffset:1;stroke-opacity:1"
         id="circle8093"
         cx="344.9671"
         cy="595.25775"
         r="0.64870512" />
      <circle
         style="display:inline;fill:none;fill-opacity:1;stroke:#9d9d9d;stroke-width:2.84061408;stroke-linecap:butt;stroke-linejoin:round;stroke-miterlimit:4;stroke-dasharray:none;stroke-dashoffset:1;stroke-opacity:1"
         id="circle8103"
         cx="344.9671"
         cy="595.25775"
         r="129.252" />
      <path
         id="path8080"
         style="fill:none;fill-opacity:1;stroke:#000000;stroke-width:1.35128212;stroke-linecap:butt;stroke-linejoin:miter;stroke-opacity:1"
         d="m 341.46826,397.6469 0,-27.02564 0,-27.02564 -13.51282,-23.40489 -13.51282,-23.40489 -23.4049,-13.51282 -23.40489,-13.51282 -27.02565,0 -27.02564,0 -23.40489,13.51282 -23.4049,13.51282 m 46.80979,-27.02564 -23.40489,-13.51282 -23.4049,-13.51283 m 46.80979,27.02565 -23.40489,13.51282 -27.02565,0 -23.40489,-13.51282 m 73.83543,0 -23.40489,-13.51282 -27.02565,0 -23.40489,13.51282 m 46.80979,0 -27.02564,0 m 108.10257,0 -13.51282,-23.4049 -13.51283,-23.40489 -23.40489,-13.51283 -23.4049,-13.51282 m 46.80979,27.02565 0,-27.02565 0,-27.02564 m 0,54.05129 -23.40489,-13.51283 -13.51282,-23.40489 0,-27.02564 m 36.91771,63.94336 0,-27.02565 -13.51282,-23.40489 -23.40489,-13.51282 m 23.40489,40.53846 -13.51282,-23.40488 m 54.05129,93.61957 -27.02565,0 -23.40489,-13.51282 -13.51282,-23.4049 m 63.94336,36.91772 -13.51282,-23.4049 -23.4049,-13.51282 -27.02564,0 m 40.53846,23.4049 -23.40489,-13.51283 m 93.61958,54.05129 0,-27.02564 0,-27.02565 -13.51282,-23.40489 -13.51282,-23.4049 -23.4049,-13.51282 -23.4049,-13.51282 m 46.8098,27.02564 0,-27.02564 0,-27.02564 m 0,54.05128 -23.4049,-13.51282 -13.51282,-23.40489 0,-27.02565 m 36.91772,63.94336 0,-27.02564 -13.51282,-23.4049 -23.4049,-13.51282 m 23.4049,40.53847 -13.51283,-23.40489 m 54.05129,93.61957 13.51282,-23.40489 13.51282,-23.4049 0,-27.02564 0,-27.02564 m 0,54.05128 23.4049,-13.51282 23.40488,-13.51282 m -46.80978,27.02564 0,-27.02564 13.51282,-23.4049 23.4049,-13.51282 m -36.91772,63.94336 23.4049,-13.51282 13.51282,-23.40489 0,-27.02565 m -23.4049,40.53847 13.51282,-23.40489 m -54.05128,93.61957 -13.51282,-23.40489 0,-27.02564 13.51282,-23.4049 m 0,73.83543 13.51282,-23.40489 0,-27.02564 -13.51282,-23.4049 m 0,46.80979 0,-27.02564 m 0,108.10257 -23.4049,-13.51282 -13.51282,-23.4049 0,-27.02564 m 36.91772,63.94336 0,-27.02564 -13.51282,-23.4049 -23.4049,-13.51282 m 23.4049,40.53846 -13.51282,-23.40489 m 54.05128,93.61957 13.51282,-23.40489 13.51282,-23.40489 0,-27.02564 0,-27.02565 -13.51282,-23.40489 -13.51282,-23.4049 -23.40489,-13.51282 -23.4049,-13.51282 m 46.80979,27.02564 0,-27.02564 0,-27.02564 m 0,54.05128 -23.40489,-13.51282 -13.51283,-23.40489 0,-27.02565 m 36.91772,63.94336 0,-27.02564 -13.51282,-23.4049 -23.4049,-13.51282 m 23.4049,40.53847 -13.51282,-23.40489 m 54.05128,93.61957 13.51283,-23.40489 13.51282,-23.4049 0,-27.02564 0,-27.02564 m 0,54.05128 23.40489,-13.51282 23.40489,-13.51282 m -46.80978,27.02564 0,-27.02564 13.51282,-23.4049 23.40489,-13.51282 m -36.91771,63.94336 23.40489,-13.51282 13.51282,-23.40489 0,-27.02565 m -23.40489,40.53847 13.51282,-23.40489 m -54.05129,93.61957 -13.51282,-23.40489 0,-27.02564 13.51282,-23.4049 m 0,73.83543 13.51283,-23.40489 0,-27.02564 -13.51283,-23.4049 m 0,46.80979 0,-27.02564 m 0,108.10257 23.4049,-13.51282 23.40488,-13.51282 13.51282,-23.4049 13.51283,-23.40489 0,-27.02565 0,-27.02564 m 0,54.05129 23.40489,-13.51283 23.4049,-13.51282 m -46.80979,27.02565 0,-27.02565 13.51282,-23.40489 23.40489,-13.51282 m -36.91771,63.94336 23.40489,-13.51283 13.51282,-23.40489 0,-27.02564 m -23.40489,40.53846 13.51282,-23.40488 m -54.05129,93.61957 27.02565,0 27.02564,0 23.40489,-13.51282 23.4049,-13.51283 m -46.80979,27.02565 23.40489,13.51282 23.4049,13.51282 m -46.80979,-27.02564 23.40489,-13.51282 27.02565,0 23.40489,13.51282 m -73.83543,0 23.40489,13.51282 27.02565,0 23.40489,-13.51282 m -46.80979,0 27.02564,0 m -108.10257,0 13.51282,-23.4049 23.4049,-13.51282 27.02564,0 m -63.94336,36.91772 27.02565,0 23.40489,-13.51282 13.51282,-23.4049 m -40.53846,23.4049 23.40489,-13.51283 m -93.61957,54.05129 0,-27.02564 13.51283,-23.4049 23.40489,-13.51282 m -36.91772,63.94336 23.4049,-13.51282 13.51282,-23.4049 0,-27.02564 m -23.40489,40.53846 13.51282,-23.40489" />
      <path
         d="m 175.52936,697.12399 -23.40489,13.51282 -23.40489,13.51282 -13.51282,23.40489 -13.51282,23.40487 0,27.0257 0,27.0256 13.51283,23.4049 13.51282,23.4049 23.40489,13.5128 23.40489,13.5128 m -46.80978,-27.0256 0,27.0256 -1e-5,27.0257 m 1e-5,-54.0513 23.40489,13.5128 13.51282,23.4049 0,27.0257 m -36.91771,-63.9434 0,27.0256 13.51282,23.4049 23.40489,13.5129 m -23.40489,-40.5385 13.51282,23.4049 m -54.05129,-93.6196 -13.512827,23.4049 -13.512814,23.4049 -9e-6,27.0256 5e-6,27.0257 m 4e-6,-54.0513 -23.404899,13.5128 -23.404891,13.5128 m 46.80979,-27.0256 -9e-6,27.0256 -13.512819,23.4049 -23.404891,13.5129 m 36.917719,-63.9434 -23.404899,13.5128 -13.51282,23.4049 0,27.0257 m 23.404891,-40.5385 -13.512811,23.4049 m 54.05128,-93.6196 13.51283,23.4049 0,27.0256 -13.51283,23.4049 m 0,-73.8354 -13.512827,23.4049 5e-6,27.0257 13.512822,23.4048 m 1e-5,-46.8097 -1e-5,27.0256 m 0,-108.1026 -23.404894,13.5128 -23.404899,13.5129 -13.512819,23.4049 -13.512828,23.4049 4e-6,27.0256 5e-6,27.0256 m -9e-6,-54.0512 -23.4048912,13.5128 -23.4048908,13.5128 m 46.809782,-27.0256 4e-6,27.0256 -13.512819,23.4049 -23.4048996,13.5128 m 36.9177146,-63.9433 -23.4048912,13.5128 -13.512828,23.4049 4.6e-6,27.0256 M 14.34568,868.19969 0.83286597,891.60459 m 54.05128103,-93.6195 -27.025639,0 -27.0256484,0 -23.4048906,13.5128 -23.404891,13.5128 m 46.8097816,-27.0256 -23.4048956,-13.5129 -23.404885,-13.5128 m 46.8097806,27.0257 -23.4048906,13.5128 -27.025648,0 -23.404896,-13.5128 m 73.8354346,0 -23.4048956,-13.5129 -27.025639,0 -23.4049,13.5129 m 46.809795,0 -27.025639,0 m 108.102566,0 -13.512819,23.4049 -23.404891,13.5128 -27.0256482,0 m 63.9433582,-36.9177 -27.025639,0 -23.4048912,13.5128 -13.512828,23.4049 m 40.5384672,-23.4049 -23.4048907,13.5128 m 93.6195747,-54.0513 0,27.0257 -13.512826,23.4049 -23.404891,13.5128 m 36.917717,-63.9434 -23.404894,13.5128 -13.512828,23.4049 5e-6,27.0257 m 23.404886,-40.5385 -13.512819,23.4049 m 54.05129,-93.61956 -27.02564,0 -27.025643,0 -23.404891,13.51282 -23.404899,13.51282 -13.512819,23.40492 -13.5128284,23.4049 -4e-7,27.0256 4.6e-6,27.0257 m -4.2e-6,-54.0513 -23.4048906,13.5128 -23.404891,13.5128 m 46.8097816,-27.0256 -4e-7,27.0256 -13.5128142,23.4049 -23.4049,13.5128 m 36.9177146,-63.9433 -23.4048906,13.5128 -13.512828,23.4049 4e-6,27.0256 m 23.404895,-40.5384 -13.512819,23.4049 m 54.051286,-93.61962 -27.02564443,0 -27.02564757,0 -23.404891,13.51282 -23.404891,13.5128 m 46.809782,-27.02562 -23.404891,-13.51282 -23.40489,-13.51282 m 46.809781,27.02564 -23.404891,13.51282 -27.025648,0 -23.404886,-13.51282 m 73.835425,0 -23.404891,-13.51282 -27.025639,0 -23.404895,13.51282 m 46.809785,0 -27.025639,0 m 108.102571,0 -13.512819,23.40492 -23.4048912,13.5128 -27.0256478,0 m 63.943358,-36.91772 -27.02564443,0 -23.40489057,13.51282 -13.512823,23.4049 m 40.5384671,-23.4049 -23.4048911,13.5128 M 74.668297,724.14963 51.263402,710.6368 27.858516,697.12399 l -27.02564764,10e-6 -27.02564436,-10e-6 -23.404899,13.51282 -23.404891,13.51282 m 46.80979,-27.02564 -23.404899,-13.51282 -23.404895,-13.51283 m 46.809794,27.02565 -23.404899,13.51282 -27.02564,0 -23.404895,-13.51282 m 73.835434,0 -23.404899,-13.51282 -27.025639,0 -23.404896,13.51282 m 46.809786,0 -27.025631,0 m 108.102571,0 L 14.345691,673.71909 0.83287134,650.3142 -22.572019,636.80138 -45.976923,623.28856 m 46.80979434,27.02564 3.9e-7,-27.02564 -4.6e-6,-27.02565 m 4.21e-6,54.05129 -23.40489034,-13.51282 -13.512825,-23.4049 0,-27.02564 m 36.91771534,63.94336 3.9e-7,-27.02564 -13.51282473,-23.4049 -23.404891,-13.51282 m 23.404895,40.53847 -13.51282,-23.40489 m 54.051285,93.61957 -27.02564764,10e-6 -23.40489536,-13.51283 -13.51282,-23.40489 m 63.943363,36.91771 -13.512825,-23.4049 -23.4048901,-13.51282 -27.0256479,10e-6 M 4.4536209,683.61116 -18.951278,670.09835 m 93.619575,54.05128 -23.404891,13.51282 -27.025653,0 -23.40489003,-13.51282 m 73.83543403,0 -23.404895,-13.51283 -27.025648,10e-6 -23.40489103,13.51282 m 46.80978103,0 -27.025639,-10e-6"
         style="fill:none;fill-opacity:1;stroke:#000000;stroke-width:1.35128212;stroke-linecap:butt;stroke-linejoin:miter;stroke-opacity:1"
         id="path8095" />
      <path
         id="path8097"
         style="fill:none;fill-opacity:1;stroke:#000000;stroke-width:1.35128212;stroke-linecap:butt;stroke-linejoin:miter;stroke-opacity:1"
         d="m 517.85358,691.09275 23.40489,13.51282 23.40489,13.51282 27.02564,0 27.02564,0 23.40489,-13.51283 23.40489,-13.51282 13.51283,-23.4049 13.51282,-23.40489 0,-27.02564 0,-27.02565 m 0,54.05129 23.40489,-13.51282 23.4049,-13.51282 m -46.80979,27.02564 0,-27.02564 13.51282,-23.4049 23.40489,-13.51282 m -36.91771,63.94336 23.40489,-13.51282 13.51282,-23.4049 0,-27.02564 m -23.40489,40.53847 13.51282,-23.40489 m -54.05129,93.61957 27.02565,10e-6 27.02564,-10e-6 23.4049,-13.51282 23.4049,-13.51282 m -46.8098,27.02564 23.4049,13.51282 23.40489,13.51282 m -46.80979,-27.02564 23.4049,-13.51282 27.02564,0 23.40489,13.51282 m -73.83543,0 23.4049,13.51282 27.02564,0 23.40489,-13.51282 m -46.80978,0 27.02563,0 m -108.10257,0 13.51283,-23.4049 23.40489,-13.51282 27.02565,10e-6 m -63.94337,36.91771 27.02565,10e-6 23.4049,-13.51283 13.51282,-23.40489 m -40.53847,23.40488 23.4049,-13.51281 m -93.61958,54.05129 23.40489,13.51282 23.4049,13.51282 27.02564,0 27.02564,10e-6 23.4049,-13.51283 23.40489,-13.51283 m -46.80979,27.02566 23.40489,13.51285 23.4049,13.5128 m -46.80979,-27.02565 23.4049,-13.51283 27.02564,0 23.4049,13.51283 m -73.83544,0 23.40489,13.51285 27.02565,0 23.4049,-13.51285 m -46.8098,0 27.02565,-10e-6 m -108.10257,0 13.51282,23.40486 13.51282,23.4049 23.40489,13.5129 23.4049,13.5128 m -46.80979,-27.0257 0,27.0257 0,27.0256 m 0,-54.0513 23.40489,13.5129 13.51283,23.4048 0,27.0257 m -36.91772,-63.9434 0,27.0257 13.51282,23.4049 23.4049,13.5128 m -23.4049,-40.5385 13.51282,23.4049 m -54.05128,-93.61956 27.02564,0 23.40489,13.51286 13.51282,23.4049 m -63.94335,-36.91776 13.51282,23.40486 23.40489,13.5129 27.02564,0 m -40.53846,-23.4049 23.40489,13.5128 m -93.61957,-54.0513 23.40489,-13.51283 27.02565,10e-6 23.40489,13.51282 m -73.83543,0 23.40489,13.51282 27.02565,0 23.40489,-13.51282 m -46.80979,0 27.02564,0 m -108.10256,0 13.51282,23.40489 13.51282,23.40491 23.40489,13.5128 23.4049,13.5128 27.02564,0 27.02564,0 23.40489,-13.5128 23.4049,-13.5128 m -46.80979,27.0256 23.40489,13.5129 23.4049,13.5128 m -46.80979,-27.0257 23.40489,-13.5128 27.02565,0 23.4049,13.5128 m -73.83544,0 23.40489,13.5129 27.02565,0 23.4049,-13.5129 m -46.8098,0 27.02564,0 m -108.10256,0 13.51281,23.4049 13.51283,23.4049 23.40489,13.5128 23.40489,13.5129 m -46.80978,-27.0257 0,27.0257 0,27.0256 m 0,-54.0513 23.40489,13.5128 13.51283,23.4049 0,27.0257 m -36.91772,-63.9434 0,27.0257 13.51282,23.4049 23.4049,13.5128 m -23.4049,-40.5385 13.51282,23.4049 m -54.05128,-93.6196 27.02564,0 23.40489,13.5128 13.51282,23.4049 m -63.94335,-36.9177 13.51281,23.4049 23.40489,13.5128 27.02565,0 m -40.53846,-23.4049 23.40489,13.5129 m -93.61957,-54.0513 -10e-6,27.0256 10e-6,27.0257 13.51283,23.4049 13.51281,23.4049 23.4049,13.5128 23.40489,13.5128 m -46.80979,-27.0256 10e-6,27.0256 -10e-6,27.0256 m 0,-54.0512 23.4049,13.5128 13.51282,23.4049 0,27.0256 m -36.91772,-63.9433 10e-6,27.0256 13.51282,23.4049 23.40489,13.5128 m -23.40489,-40.5385 13.51281,23.4049 m -54.05128,-93.6195 -13.51283,23.4049 -13.51282,23.4048 0,27.0257 10e-6,27.0256 m -10e-6,-54.0513 -23.40489,13.5129 -23.40489,13.5128 m 46.80978,-27.0257 0,27.0257 -13.51282,23.4049 -23.40489,13.5128 m 36.91771,-63.9434 -23.40489,13.5129 -13.51282,23.4049 0,27.0256 m 23.40489,-40.5385 -13.51282,23.4049 m 54.05129,-93.6195 13.51283,23.4049 -10e-6,27.0256 -13.51282,23.4049 m 0,-73.8354 -13.51283,23.4049 0,27.0256 13.51283,23.4049 m -10e-6,-46.8098 10e-6,27.0257 m 0,-108.1026 23.40489,13.5128 13.51282,23.4049 0,27.0256 m -36.91771,-63.9433 -10e-6,27.0256 13.51283,23.4049 23.40489,13.5128 m -23.40489,-40.5384 13.51282,23.4049" />
    </g>
  </g>
</svg>
